<?xml version="1.0" encoding="UTF-8" standalone="no"?>
<svg viewBox="0 0 671 2645"
     preserveAspectRatio="xMidYMid meet"
     version="1.1"
     baseProfile="full"
     xmlns="http://www.w3.org/2000/svg"
     xmlns:xlink="http://www.w3.org/1999/xlink"
     xmlns:ev="http://www.w3.org/2001/xml-events"
     xml:space="preserve">
<title>gnss_system_bd_imp</title>
<desc>Nlview schematic (SVG)</desc>
<clipPath id="clippingbbox">
<rect x="0" y="0" width="2645" height="671" />
</clipPath>
<g stroke="#102235"
   stroke-width="1"
   stroke-linecap="butt"
   stroke-linejoin="miter"
   stroke-miterlimit="4"
   stroke-dasharray="none"
   stroke-dashoffset="0"
   fill="none"
   font-family="Helvetica"
   font-style="normal"
   font-size="12"
   writing-mode="lr-tb"
   cursor="crosshair"
   transform="rotate(-90) translate(-2645)"
   clip-path="url(#clippingbbox)">
<path d="M0 0h2644v672h-2644z" stroke="none" fill="white" />
<path d="M113 541l-7 7h-14v-14h14z" stroke="none" fill="#ddd4d0" />
<g stroke="#2a5e6f" stroke-width="3">
<path d="M113 541l-7 7h-14v-14h14z" />
<text x="88" y="541" fill="black" stroke-width="0" text-anchor="end" dy="4.4">fmc_iq_in</text>
<path d="M190 233h266l3 1l2 1l1 2l1 3v162l-1 3l-1 2l-2 1l-3 1h-266l-3 -1l-2 -1l-1 -2l-1 -3v-162l1 -3l1 -2l2 -1z" stroke="none" fill="#edf6fe" />
<text x="323" y="231" fill="black" stroke-width="0" text-anchor="middle" dy="-1.6">axi_dma_0</text>
<text x="323" y="411" fill="#41619f" stroke-width="0" text-anchor="middle" dy="9.6">AXI Direct Memory Access</text>
<path d="M173 262h10v18h-10z" stroke="none" fill="#edf6fe" />
</g>
<g stroke="black" stroke-width="3">
<path d="M192 266v10" />
<path d="M187 271h10" />
</g>
<g stroke="black">
<path d="M185 264h14v14h-14z" />
<text x="200" y="271" fill="black" stroke-width="0" font-size="10" dy="3.66667">S_AXI_LITE</text>
<path d="M463 252h10v18h-10z" stroke="none" fill="#edf6fe" />
</g>
<g stroke="black" stroke-width="3">
<path d="M453 256v10" />
<path d="M448 261h10" />
</g>
<g stroke="black">
<path d="M446 254h14v14h-14z" />
<text x="446" y="261" fill="black" stroke-width="0" font-size="10" text-anchor="end" dy="3.66667">M_AXI_MM2S</text>
<path d="M463 272h10v18h-10z" stroke="none" fill="#edf6fe" />
</g>
<g stroke="black" stroke-width="3">
<path d="M453 276v10" />
<path d="M448 281h10" />
</g>
<g stroke="black">
<path d="M446 274h14v14h-14z" />
<text x="446" y="281" fill="black" stroke-width="0" font-size="10" text-anchor="end" dy="3.66667">M_AXI_S2MM</text>
<path d="M463 292h10v18h-10z" stroke="none" fill="#edf6fe" />
</g>
<g stroke="black" stroke-width="3">
<path d="M453 296v10" />
<path d="M448 301h10" />
</g>
<g stroke="black">
<path d="M446 294h14v14h-14z" />
<text x="446" y="301" fill="black" stroke-width="0" font-size="10" text-anchor="end" dy="3.66667">M_AXIS_MM2S</text>
<path d="M173 282h10v18h-10z" stroke="none" fill="#edf6fe" />
</g>
<g stroke="black" stroke-width="3">
<path d="M192 286v10" />
<path d="M187 291h10" />
</g>
<g stroke="black">
<path d="M185 284h14v14h-14z" />
<text x="200" y="291" fill="black" stroke-width="0" font-size="10" dy="3.66667">S_AXIS_S2MM</text>
</g>
<g stroke="black" stroke-width="3">
<path d="M173 311h10" />
<text x="185" y="311" fill="black" stroke-width="0" font-size="10" dy="3.66667">s_axi_lite_aclk</text>
<path d="M173 331h10" />
<text x="185" y="331" fill="black" stroke-width="0" font-size="10" dy="3.66667">m_axi_mm2s_aclk</text>
<path d="M173 351h10" />
<text x="185" y="351" fill="black" stroke-width="0" font-size="10" dy="3.66667">m_axi_s2mm_aclk</text>
<circle cx="180" cy="371" r="3" />
<path d="M173 371h4" />
<text x="185" y="371" fill="black" stroke-width="0" font-size="10" dy="3.66667">axi_resetn</text>
<circle cx="466" cy="321" r="3" />
<path d="M473 321h-4" />
<text x="461" y="321" fill="black" stroke-width="0" font-size="10" text-anchor="end" dy="3.66667">mm2s_prmry_reset_out_n</text>
<circle cx="466" cy="341" r="3" />
<path d="M473 341h-4" />
<text x="461" y="341" fill="black" stroke-width="0" font-size="10" text-anchor="end" dy="3.66667">s2mm_prmry_reset_out_n</text>
<path d="M473 361h-10" />
<text x="461" y="361" fill="black" stroke-width="0" font-size="10" text-anchor="end" dy="3.66667">mm2s_introut</text>
<path d="M473 381h-10" />
<text x="461" y="381" fill="black" stroke-width="0" font-size="10" text-anchor="end" dy="3.66667">s2mm_introut</text>
</g>
<g stroke="#41619f">
<path d="M190 233h266" />
<path d="M456,233 A6.83537,6.83537 1.61957 0,1 463,240" />
<path d="M463 240v162" />
<path d="M463,402 A6.83537,6.83537 1.61957 0,1 456,409" />
<path d="M456 409h-266" />
<path d="M190,409 A6.83537,6.83537 1.61957 0,1 183,402" />
<path d="M183 402v-162" />
<path d="M183,240 A6.83537,6.83537 1.61957 0,1 190,233" />
<path d="M560 33h206l3 1l2 1l1 2l1 3v102l-1 3l-1 2l-2 1l-3 1h-206l-3 -1l-2 -1l-1 -2l-1 -3v-102l1 -3l1 -2l2 -1z" stroke="none" fill="#edf6fe" />
<text x="663" y="31" fill="black" stroke-width="0" text-anchor="middle" dy="-1.6">data_smc</text>
<text x="663" y="151" fill="#41619f" stroke-width="0" text-anchor="middle" dy="9.6">AXI SmartConnect</text>
<path d="M543 52h10v18h-10z" stroke="none" fill="#edf6fe" />
</g>
<g stroke="black" stroke-width="3">
<path d="M562 56v10" />
<path d="M557 61h10" />
</g>
<g stroke="black">
<path d="M555 54h14v14h-14z" />
<text x="570" y="61" fill="black" stroke-width="0" font-size="10" dy="3.66667">S00_AXI</text>
<path d="M543 72h10v18h-10z" stroke="none" fill="#edf6fe" />
</g>
<g stroke="black" stroke-width="3">
<path d="M562 76v10" />
<path d="M557 81h10" />
</g>
<g stroke="black">
<path d="M555 74h14v14h-14z" />
<text x="570" y="81" fill="black" stroke-width="0" font-size="10" dy="3.66667">S01_AXI</text>
<path d="M773 82h10v18h-10z" stroke="none" fill="#edf6fe" />
</g>
<g stroke="black" stroke-width="3">
<path d="M763 86v10" />
<path d="M758 91h10" />
</g>
<g stroke="black">
<path d="M756 84h14v14h-14z" />
<text x="756" y="91" fill="black" stroke-width="0" font-size="10" text-anchor="end" dy="3.66667">M00_AXI</text>
</g>
<g stroke="black" stroke-width="3">
<path d="M543 101h10" />
<text x="555" y="101" fill="black" stroke-width="0" font-size="10" dy="3.66667">aclk</text>
<circle cx="550" cy="121" r="3" />
<path d="M543 121h4" />
<text x="555" y="121" fill="black" stroke-width="0" font-size="10" dy="3.66667">aresetn</text>
</g>
<g stroke="#41619f">
<path d="M560 33h206" />
<path d="M766,33 A6.83537,6.83537 1.61957 0,1 773,40" />
<path d="M773 40v102" />
<path d="M773,142 A6.83537,6.83537 1.61957 0,1 766,149" />
<path d="M766 149h-206" />
<path d="M560,149 A6.83537,6.83537 1.61957 0,1 553,142" />
<path d="M553 142v-102" />
<path d="M553,40 A6.83537,6.83537 1.61957 0,1 560,33" />
<path d="M850 29h526l3 1l2 1l1 2l1 3v110l-1 3l-1 2l-2 1l-3 1h-526l-3 -1l-2 -1l-1 -2l-1 -3v-110l1 -3l1 -2l2 -1z" stroke="none" fill="#edf6fe" />
<text x="1113" y="27" fill="black" stroke-width="0" text-anchor="middle" dy="-1.6">zynq_ultra_ps_e_0</text>
<text x="1113" y="155" fill="#41619f" stroke-width="0" text-anchor="middle" dy="9.6">Zynq UltraScale+ MPSoC</text>
<path d="M1383 62h10v18h-10z" stroke="none" fill="#edf6fe" />
</g>
<g stroke="black" stroke-width="3">
<path d="M1373 66v10" />
<path d="M1368 71h10" />
</g>
<g stroke="black">
<path d="M1366 64h14v14h-14z" />
<text x="1366" y="71" fill="black" stroke-width="0" font-size="10" text-anchor="end" dy="3.66667">M_AXI_HPM0_FPD</text>
<path d="M833 62h10v18h-10z" stroke="none" fill="#edf6fe" />
</g>
<g stroke="black" stroke-width="3">
<path d="M852 66v10" />
<path d="M847 71h10" />
</g>
<g stroke="black">
<path d="M845 64h14v14h-14z" />
<text x="860" y="71" fill="black" stroke-width="0" font-size="10" dy="3.66667">S_AXI_HP0_FPD</text>
</g>
<g stroke="black" stroke-width="3">
<path d="M833 91h10" />
<text x="845" y="91" fill="black" stroke-width="0" font-size="10" dy="3.66667">maxihpm0_fpd_aclk</text>
<path d="M833 111h10" />
<text x="845" y="111" fill="black" stroke-width="0" font-size="10" dy="3.66667">saxihp0_fpd_aclk</text>
<circle cx="1386" cy="91" r="3" />
<path d="M1393 91h-4" />
<text x="1381" y="91" fill="black" stroke-width="0" font-size="10" text-anchor="end" dy="3.66667">pl_resetn0</text>
<path d="M1393 111h-10" />
<text x="1381" y="111" fill="black" stroke-width="0" font-size="10" text-anchor="end" dy="3.66667">pl_clk0</text>
</g>
<g stroke="#41619f">
<path d="M850 29h526" />
<path d="M1376,29 A6.83537,6.83537 1.61957 0,1 1383,36" />
<path d="M1383 36v110" />
<path d="M1383,146 A6.83537,6.83537 1.61957 0,1 1376,153" />
<path d="M1376 153h-526" />
<path d="M850,153 A6.83537,6.83537 1.61957 0,1 843,146" />
<path d="M843 146v-110" />
<path d="M843,36 A6.83537,6.83537 1.61957 0,1 850,29" />
<path d="M1520 323h206l3 1l2 1l1 2l1 3v82l-1 3l-1 2l-2 1l-3 1h-206l-3 -1l-2 -1l-1 -2l-1 -3v-82l1 -3l1 -2l2 -1z" stroke="none" fill="#edf6fe" />
<text x="1623" y="321" fill="black" stroke-width="0" text-anchor="middle" dy="-1.6">ctrl_smc</text>
<text x="1623" y="421" fill="#41619f" stroke-width="0" text-anchor="middle" dy="9.6">AXI SmartConnect</text>
<path d="M1503 342h10v18h-10z" stroke="none" fill="#edf6fe" />
</g>
<g stroke="black" stroke-width="3">
<path d="M1522 346v10" />
<path d="M1517 351h10" />
</g>
<g stroke="black">
<path d="M1515 344h14v14h-14z" />
<text x="1530" y="351" fill="black" stroke-width="0" font-size="10" dy="3.66667">S00_AXI</text>
<path d="M1733 352h10v18h-10z" stroke="none" fill="#edf6fe" />
</g>
<g stroke="black" stroke-width="3">
<path d="M1723 356v10" />
<path d="M1718 361h10" />
</g>
<g stroke="black">
<path d="M1716 354h14v14h-14z" />
<text x="1716" y="361" fill="black" stroke-width="0" font-size="10" text-anchor="end" dy="3.66667">M00_AXI</text>
<path d="M1733 372h10v18h-10z" stroke="none" fill="#edf6fe" />
</g>
<g stroke="black" stroke-width="3">
<path d="M1723 376v10" />
<path d="M1718 381h10" />
</g>
<g stroke="black">
<path d="M1716 374h14v14h-14z" />
<text x="1716" y="381" fill="black" stroke-width="0" font-size="10" text-anchor="end" dy="3.66667">M01_AXI</text>
</g>
<g stroke="black" stroke-width="3">
<path d="M1503 371h10" />
<text x="1515" y="371" fill="black" stroke-width="0" font-size="10" dy="3.66667">aclk</text>
<circle cx="1510" cy="391" r="3" />
<path d="M1503 391h4" />
<text x="1515" y="391" fill="black" stroke-width="0" font-size="10" dy="3.66667">aresetn</text>
</g>
<g stroke="#41619f">
<path d="M1520 323h206" />
<path d="M1726,323 A6.83537,6.83537 1.61957 0,1 1733,330" />
<path d="M1733 330v82" />
<path d="M1733,412 A6.83537,6.83537 1.61957 0,1 1726,419" />
<path d="M1726 419h-206" />
<path d="M1520,419 A6.83537,6.83537 1.61957 0,1 1513,412" />
<path d="M1513 412v-82" />
<path d="M1513,330 A6.83537,6.83537 1.61957 0,1 1520,323" />
<path d="M1500 493h246l3 1l2 1l1 2l1 3v122l-1 3l-1 2l-2 1l-3 1h-246l-3 -1l-2 -1l-1 -2l-1 -3v-122l1 -3l1 -2l2 -1z" stroke="none" fill="#edf6fe" />
<text x="1623" y="491" fill="black" stroke-width="0" text-anchor="middle" dy="-1.6">in_switch</text>
<text x="1623" y="631" fill="#41619f" stroke-width="0" text-anchor="middle" dy="9.6">AXI4-Stream Switch</text>
<path d="M1483 512h10v18h-10z" stroke="none" fill="#edf6fe" />
</g>
<g stroke="black" stroke-width="3">
<path d="M1502 516v10" />
<path d="M1497 521h10" />
</g>
<g stroke="black">
<path d="M1495 514h14v14h-14z" />
<text x="1510" y="521" fill="black" stroke-width="0" font-size="10" dy="3.66667">S00_AXIS</text>
<path d="M1753 542h10v18h-10z" stroke="none" fill="#edf6fe" />
</g>
<g stroke="black" stroke-width="3">
<path d="M1743 546v10" />
<path d="M1738 551h10" />
</g>
<g stroke="black">
<path d="M1736 544h14v14h-14z" />
<text x="1736" y="551" fill="black" stroke-width="0" font-size="10" text-anchor="end" dy="3.66667">M00_AXIS</text>
<path d="M1483 532h10v18h-10z" stroke="none" fill="#edf6fe" />
</g>
<g stroke="black" stroke-width="3">
<path d="M1502 536v10" />
<path d="M1497 541h10" />
</g>
<g stroke="black">
<path d="M1495 534h14v14h-14z" />
<text x="1510" y="541" fill="black" stroke-width="0" font-size="10" dy="3.66667">S01_AXIS</text>
</g>
<g stroke="black" stroke-width="3">
<path d="M1483 561h10" />
<text x="1495" y="561" fill="black" stroke-width="0" font-size="10" dy="3.66667">aclk</text>
<circle cx="1490" cy="581" r="3" />
<path d="M1483 581h4" />
<text x="1495" y="581" fill="black" stroke-width="0" font-size="10" dy="3.66667">aresetn</text>
</g>
<g stroke="black" stroke-width="5">
<path d="M1483 601h10" />
<text x="1495" y="601" fill="black" stroke-width="0" font-size="10" dy="3.66667">s_req_suppress[1:0]</text>
<path d="M1763 571h-10" />
<text x="1751" y="571" fill="black" stroke-width="0" font-size="10" text-anchor="end" dy="3.66667">s_decode_err[1:0]</text>
</g>
<g stroke="#41619f">
<path d="M1500 493h246" />
<path d="M1746,493 A6.83537,6.83537 1.61957 0,1 1753,500" />
<path d="M1753 500v122" />
<path d="M1753,622 A6.83537,6.83537 1.61957 0,1 1746,629" />
<path d="M1746 629h-246" />
<path d="M1500,629 A6.83537,6.83537 1.61957 0,1 1493,622" />
<path d="M1493 622v-122" />
<path d="M1493,500 A6.83537,6.83537 1.61957 0,1 1500,493" />
<path d="M1830 243h286l3 1l2 1l1 2l1 3v122l-1 3l-1 2l-2 1l-3 1h-286l-3 -1l-2 -1l-1 -2l-1 -3v-122l1 -3l1 -2l2 -1z" stroke="none" fill="#edf6fe" />
<text x="1973" y="241" fill="black" stroke-width="0" text-anchor="middle" dy="-1.6">proc_sys_reset_0</text>
<text x="1973" y="381" fill="#41619f" stroke-width="0" text-anchor="middle" dy="9.6">Processor System Reset</text>
</g>
<g stroke="black" stroke-width="3">
<path d="M1813 271h10" />
<text x="1825" y="271" fill="black" stroke-width="0" font-size="10" dy="3.66667">slowest_sync_clk</text>
<circle cx="1820" cy="291" r="3" />
<path d="M1813 291h4" />
<text x="1825" y="291" fill="black" stroke-width="0" font-size="10" dy="3.66667">ext_reset_in</text>
<circle cx="1820" cy="311" r="3" />
<path d="M1813 311h4" />
<text x="1825" y="311" fill="black" stroke-width="0" font-size="10" dy="3.66667">aux_reset_in</text>
<path d="M1813 331h10" />
<text x="1825" y="331" fill="black" stroke-width="0" font-size="10" dy="3.66667">mb_debug_sys_rst</text>
<path d="M1813 351h10" />
<text x="1825" y="351" fill="black" stroke-width="0" font-size="10" dy="3.66667">dcm_locked</text>
<path d="M2133 271h-10" />
<text x="2121" y="271" fill="black" stroke-width="0" font-size="10" text-anchor="end" dy="3.66667">mb_reset</text>
</g>
<g stroke="black" stroke-width="5">
<path d="M2133 291h-10" />
<text x="2121" y="291" fill="black" stroke-width="0" font-size="10" text-anchor="end" dy="3.66667">bus_struct_reset[0:0]</text>
<path d="M2133 311h-10" />
<text x="2121" y="311" fill="black" stroke-width="0" font-size="10" text-anchor="end" dy="3.66667">peripheral_reset[0:0]</text>
<circle cx="2126" cy="331" r="3" />
<path d="M2133 331h-4" />
<text x="2121" y="331" fill="black" stroke-width="0" font-size="10" text-anchor="end" dy="3.66667">interconnect_aresetn[0:0]</text>
<circle cx="2126" cy="351" r="3" />
<path d="M2133 351h-4" />
<text x="2121" y="351" fill="black" stroke-width="0" font-size="10" text-anchor="end" dy="3.66667">peripheral_aresetn[0:0]</text>
</g>
<g stroke="#41619f">
<path d="M1830 243h286" />
<path d="M2116,243 A6.83537,6.83537 1.61957 0,1 2123,250" />
<path d="M2123 250v122" />
<path d="M2123,372 A6.83537,6.83537 1.61957 0,1 2116,379" />
<path d="M2116 379h-286" />
<path d="M1830,379 A6.83537,6.83537 1.61957 0,1 1823,372" />
<path d="M1823 372v-122" />
<path d="M1823,250 A6.83537,6.83537 1.61957 0,1 1830,243" />
<path d="M1860 503h226l3 1l2 1l1 2l1 3v102l-1 3l-1 2l-2 1l-3 1h-226l-3 -1l-2 -1l-1 -2l-1 -3v-102l1 -3l1 -2l2 -1z" stroke="none" fill="#edf6fe" />
<text x="1973" y="501" fill="black" stroke-width="0" text-anchor="middle" dy="-1.6">gnss_metric_hls_0</text>
<text x="1973" y="621" fill="#41619f" stroke-width="0" text-anchor="middle" dy="9.6">Gnss_metric_hls (Pre-Production)</text>
<path d="M1843 522h10v18h-10z" stroke="none" fill="#edf6fe" />
</g>
<g stroke="black" stroke-width="3">
<path d="M1862 526v10" />
<path d="M1857 531h10" />
</g>
<g stroke="black">
<path d="M1855 524h14v14h-14z" />
<text x="1870" y="531" fill="black" stroke-width="0" font-size="10" dy="3.66667">s_axi_ctrl</text>
<path d="M1843 542h10v18h-10z" stroke="none" fill="#edf6fe" />
</g>
<g stroke="black" stroke-width="3">
<path d="M1862 546v10" />
<path d="M1857 551h10" />
</g>
<g stroke="black">
<path d="M1855 544h14v14h-14z" />
<text x="1870" y="551" fill="black" stroke-width="0" font-size="10" dy="3.66667">tap_in</text>
<path d="M2093 542h10v18h-10z" stroke="none" fill="#edf6fe" />
</g>
<g stroke="black" stroke-width="3">
<path d="M2083 546v10" />
<path d="M2078 551h10" />
</g>
<g stroke="black">
<path d="M2076 544h14v14h-14z" />
<text x="2076" y="551" fill="black" stroke-width="0" font-size="10" text-anchor="end" dy="3.66667">metric_out</text>
</g>
<g stroke="black" stroke-width="3">
<path d="M1843 571h10" />
<text x="1855" y="571" fill="black" stroke-width="0" font-size="10" dy="3.66667">ap_clk</text>
<circle cx="1850" cy="591" r="3" />
<path d="M1843 591h4" />
<text x="1855" y="591" fill="black" stroke-width="0" font-size="10" dy="3.66667">ap_rst_n</text>
<path d="M2103 571h-10" />
<text x="2091" y="571" fill="black" stroke-width="0" font-size="10" text-anchor="end" dy="3.66667">interrupt</text>
</g>
<g stroke="#41619f">
<path d="M1860 503h226" />
<path d="M2086,503 A6.83537,6.83537 1.61957 0,1 2093,510" />
<path d="M2093 510v102" />
<path d="M2093,612 A6.83537,6.83537 1.61957 0,1 2086,619" />
<path d="M2086 619h-226" />
<path d="M1860,619 A6.83537,6.83537 1.61957 0,1 1853,612" />
<path d="M1853 612v-102" />
<path d="M1853,510 A6.83537,6.83537 1.61957 0,1 1860,503" />
<path d="M2200 523h226l3 1l2 1l1 2l1 3v82l-1 3l-1 2l-2 1l-3 1h-226l-3 -1l-2 -1l-1 -2l-1 -3v-82l1 -3l1 -2l2 -1z" stroke="none" fill="#edf6fe" />
<text x="2313" y="521" fill="black" stroke-width="0" text-anchor="middle" dy="-1.6">out_bcast</text>
<text x="2313" y="621" fill="#41619f" stroke-width="0" text-anchor="middle" dy="9.6">AXI4-Stream Broadcaster</text>
<path d="M2183 542h10v18h-10z" stroke="none" fill="#edf6fe" />
</g>
<g stroke="black" stroke-width="3">
<path d="M2202 546v10" />
<path d="M2197 551h10" />
</g>
<g stroke="black">
<path d="M2195 544h14v14h-14z" />
<text x="2210" y="551" fill="black" stroke-width="0" font-size="10" dy="3.66667">S_AXIS</text>
<path d="M2433 552h10v18h-10z" stroke="none" fill="#edf6fe" />
</g>
<g stroke="black" stroke-width="3">
<path d="M2423 556v10" />
<path d="M2418 561h10" />
</g>
<g stroke="black">
<path d="M2416 554h14v14h-14z" />
<text x="2416" y="561" fill="black" stroke-width="0" font-size="10" text-anchor="end" dy="3.66667">M00_AXIS</text>
<path d="M2433 572h10v18h-10z" stroke="none" fill="#edf6fe" />
</g>
<g stroke="black" stroke-width="3">
<path d="M2423 576v10" />
<path d="M2418 581h10" />
</g>
<g stroke="black">
<path d="M2416 574h14v14h-14z" />
<text x="2416" y="581" fill="black" stroke-width="0" font-size="10" text-anchor="end" dy="3.66667">M01_AXIS</text>
</g>
<g stroke="black" stroke-width="3">
<path d="M2183 571h10" />
<text x="2195" y="571" fill="black" stroke-width="0" font-size="10" dy="3.66667">aclk</text>
<circle cx="2190" cy="591" r="3" />
<path d="M2183 591h4" />
<text x="2195" y="591" fill="black" stroke-width="0" font-size="10" dy="3.66667">aresetn</text>
</g>
<g stroke="#41619f">
<path d="M2200 523h226" />
<path d="M2426,523 A6.83537,6.83537 1.61957 0,1 2433,530" />
<path d="M2433 530v82" />
<path d="M2433,612 A6.83537,6.83537 1.61957 0,1 2426,619" />
<path d="M2426 619h-226" />
<path d="M2200,619 A6.83537,6.83537 1.61957 0,1 2193,612" />
<path d="M2193 612v-82" />
<path d="M2193,530 A6.83537,6.83537 1.61957 0,1 2200,523" />
<path d="M2483 351v-7h14l7 7l-7 7h-14z" stroke="none" fill="#ddd4d0" />
</g>
<g stroke-width="3">
<path d="M2483 351v-7h14l7 7l-7 7h-14z" />
<text x="2508" y="351" fill="black" stroke-width="0" dy="4.4">fmc_aresetn[0:0]</text>
<path d="M2483 491v-7h14l7 7l-7 7h-14z" stroke="none" fill="#ddd4d0" />
</g>
<g>
<path d="M2483 491v-7h14l7 7l-7 7h-14z" />
<text x="2508" y="491" fill="black" stroke-width="0" dy="4.4">fmc_clk</text>
<path d="M2483 581v-7h14l7 7l-7 7h-14z" stroke="none" fill="#ddd4d0" />
</g>
<g stroke="#2a5e6f" stroke-width="3">
<path d="M2483 581v-7h14l7 7l-7 7h-14z" />
<text x="2508" y="581" fill="black" stroke-width="0" dy="4.4">metrics_out_ext</text>
</g>
<g stroke="#41619f" stroke-width="4">
<path d="M473 301h950v220h60" />
<path d="M473 261h20v-200h50" />
<path d="M473 281h30v-200h40" />
<path d="M173 271h-20v-70h1630v160h-40" />
<path d="M1743 381h40v150h60" />
<path d="M783 91h20v-20h30" />
<path d="M113 541h1370" />
<path d="M2103 551h80" />
<path d="M1763 551h80" />
<path d="M173 291h-40v170h2330v100h-20" />
<path d="M2443 581h40" />
</g>
<g stroke-width="3">
<path d="M543 121h-20v70h920v200h60" />
<path d="M1443 211h710v120h-20" />
<path d="M1440 208h7v7h-7z" stroke="none" fill="#102235" />
<path d="M173 371h-30v80h660v-10h610v220h370v-70h60" />
<path d="M1783 651h370v-300h-20" />
<path d="M2153 591h30" />
<path d="M2153 351h330" />
<path d="M1413 581h70" />
<path d="M1410 578h7v7h-7z" stroke="none" fill="#102235" />
<path d="M1780 648h7v7h-7z" stroke="none" fill="#102235" />
<path d="M2150 588h7v7h-7z" stroke="none" fill="#102235" />
<path d="M2150 348h7v7h-7z" stroke="none" fill="#102235" />
</g>
<g stroke="#41619f" stroke-width="4">
<path d="M1393 71h70v280h40" />
</g>
<g>
<path d="M173 311h-20v130h360v-340h30" />
<path d="M513 181h300" />
<path d="M811 109h5v5h-5z" stroke="none" fill="#102235" />
<path d="M811 179h5v5h-5z" stroke="none" fill="#102235" />
<path d="M1393 111h40v450h50" />
<path d="M1433 371h70" />
<path d="M153 331h20" />
<path d="M153 351h20" />
<path d="M151 329h5v5h-5z" stroke="none" fill="#102235" />
<path d="M151 349h5v5h-5z" stroke="none" fill="#102235" />
<path d="M511 179h5v5h-5z" stroke="none" fill="#102235" />
<path d="M833 91h-20v360h620" />
<path d="M1433 451h360" />
<path d="M1793 571h50" />
<path d="M1791 449h5v5h-5z" stroke="none" fill="#102235" />
<path d="M1791 569h5v5h-5z" stroke="none" fill="#102235" />
<path d="M813 111h20" />
<path d="M1431 369h5v5h-5z" stroke="none" fill="#102235" />
<path d="M1431 449h5v5h-5z" stroke="none" fill="#102235" />
<path d="M1813 271h-20v390h370v-170h320" />
<path d="M2163 571h20" />
<path d="M2161 569h5v5h-5z" stroke="none" fill="#102235" />
<path d="M1393 91h60v200h360" />
</g>
</g>
</svg>
