<?xml version="1.0" encoding="UTF-8" standalone="no"?>
<svg viewBox="0 0 495 2441"
     preserveAspectRatio="xMidYMid meet"
     version="1.1"
     baseProfile="full"
     xmlns="http://www.w3.org/2000/svg"
     xmlns:xlink="http://www.w3.org/1999/xlink"
     xmlns:ev="http://www.w3.org/2001/xml-events"
     xml:space="preserve">
<title>gnss_spoof_jam_detector_system_bd_imp</title>
<desc>Nlview schematic (SVG)</desc>
<clipPath id="clippingbbox">
<rect x="0" y="0" width="2441" height="495" />
</clipPath>
<g stroke="#102235"
   stroke-width="1"
   stroke-linecap="butt"
   stroke-linejoin="miter"
   stroke-miterlimit="4"
   stroke-dasharray="none"
   stroke-dashoffset="0"
   fill="none"
   font-family="Helvetica"
   font-style="normal"
   font-size="12"
   writing-mode="lr-tb"
   cursor="crosshair"
   transform="rotate(-90) translate(-2441)"
   clip-path="url(#clippingbbox)">
<path d="M0 0h2440v496h-2440z" stroke="none" fill="white" />
<path d="M57 329h286l3 1l2 1l1 2l1 3v122l-1 3l-1 2l-2 1l-3 1h-286l-3 -1l-2 -1l-1 -2l-1 -3v-122l1 -3l1 -2l2 -1z" stroke="none" fill="#edf6fe" />
<text x="200" y="327" fill="black" stroke-width="0" text-anchor="middle" dy="-1.6">proc_sys_reset_0</text>
<text x="200" y="467" fill="#41619f" stroke-width="0" text-anchor="middle" dy="9.6">Processor System Reset</text>
<g stroke="black" stroke-width="3">
<path d="M40 357h10" />
<text x="52" y="357" fill="black" stroke-width="0" font-size="10" dy="3.66667">slowest_sync_clk</text>
<circle cx="47" cy="377" r="3" />
<path d="M40 377h4" />
<text x="52" y="377" fill="black" stroke-width="0" font-size="10" dy="3.66667">ext_reset_in</text>
<circle cx="47" cy="397" r="3" />
<path d="M40 397h4" />
<text x="52" y="397" fill="black" stroke-width="0" font-size="10" dy="3.66667">aux_reset_in</text>
<path d="M40 417h10" />
<text x="52" y="417" fill="black" stroke-width="0" font-size="10" dy="3.66667">mb_debug_sys_rst</text>
<path d="M40 437h10" />
<text x="52" y="437" fill="black" stroke-width="0" font-size="10" dy="3.66667">dcm_locked</text>
<path d="M360 357h-10" />
<text x="348" y="357" fill="black" stroke-width="0" font-size="10" text-anchor="end" dy="3.66667">mb_reset</text>
</g>
<g stroke="black" stroke-width="5">
<path d="M360 377h-10" />
<text x="348" y="377" fill="black" stroke-width="0" font-size="10" text-anchor="end" dy="3.66667">bus_struct_reset[0:0]</text>
<path d="M360 397h-10" />
<text x="348" y="397" fill="black" stroke-width="0" font-size="10" text-anchor="end" dy="3.66667">peripheral_reset[0:0]</text>
<circle cx="353" cy="417" r="3" />
<path d="M360 417h-4" />
<text x="348" y="417" fill="black" stroke-width="0" font-size="10" text-anchor="end" dy="3.66667">interconnect_aresetn[0:0]</text>
<circle cx="353" cy="437" r="3" />
<path d="M360 437h-4" />
<text x="348" y="437" fill="black" stroke-width="0" font-size="10" text-anchor="end" dy="3.66667">peripheral_aresetn[0:0]</text>
</g>
<g stroke="#41619f">
<path d="M57 329h286" />
<path d="M343,329 A6.83537,6.83537 1.61957 0,1 350,336" />
<path d="M350 336v122" />
<path d="M350,458 A6.83537,6.83537 1.61957 0,1 343,465" />
<path d="M343 465h-286" />
<path d="M57,465 A6.83537,6.83537 1.61957 0,1 50,458" />
<path d="M50 458v-122" />
<path d="M50,336 A6.83537,6.83537 1.61957 0,1 57,329" />
<path d="M437 29h266l3 1l2 1l1 2l1 3v102l-1 3l-1 2l-2 1l-3 1h-266l-3 -1l-2 -1l-1 -2l-1 -3v-102l1 -3l1 -2l2 -1z" stroke="none" fill="#edf6fe" />
<text x="570" y="27" fill="black" stroke-width="0" text-anchor="middle" dy="-1.6">axi_dma_0</text>
<text x="570" y="147" fill="#41619f" stroke-width="0" text-anchor="middle" dy="9.6">AXI Direct Memory Access</text>
<path d="M420 48h10v18h-10z" stroke="none" fill="#edf6fe" />
</g>
<g stroke="black" stroke-width="3">
<path d="M439 52v10" />
<path d="M434 57h10" />
</g>
<g stroke="black">
<path d="M432 50h14v14h-14z" />
<text x="447" y="57" fill="black" stroke-width="0" font-size="10" dy="3.66667">S_AXI_LITE</text>
<path d="M710 48h10v18h-10z" stroke="none" fill="#edf6fe" />
</g>
<g stroke="black" stroke-width="3">
<path d="M700 52v10" />
<path d="M695 57h10" />
</g>
<g stroke="black">
<path d="M693 50h14v14h-14z" />
<text x="693" y="57" fill="black" stroke-width="0" font-size="10" text-anchor="end" dy="3.66667">M_AXI_MM2S</text>
<path d="M710 68h10v18h-10z" stroke="none" fill="#edf6fe" />
</g>
<g stroke="black" stroke-width="3">
<path d="M700 72v10" />
<path d="M695 77h10" />
</g>
<g stroke="black">
<path d="M693 70h14v14h-14z" />
<text x="693" y="77" fill="black" stroke-width="0" font-size="10" text-anchor="end" dy="3.66667">M_AXIS_MM2S</text>
</g>
<g stroke="black" stroke-width="3">
<path d="M420 77h10" />
<text x="432" y="77" fill="black" stroke-width="0" font-size="10" dy="3.66667">s_axi_lite_aclk</text>
<path d="M420 97h10" />
<text x="432" y="97" fill="black" stroke-width="0" font-size="10" dy="3.66667">m_axi_mm2s_aclk</text>
<circle cx="427" cy="117" r="3" />
<path d="M420 117h4" />
<text x="432" y="117" fill="black" stroke-width="0" font-size="10" dy="3.66667">axi_resetn</text>
<circle cx="713" cy="97" r="3" />
<path d="M720 97h-4" />
<text x="708" y="97" fill="black" stroke-width="0" font-size="10" text-anchor="end" dy="3.66667">mm2s_prmry_reset_out_n</text>
<path d="M720 117h-10" />
<text x="708" y="117" fill="black" stroke-width="0" font-size="10" text-anchor="end" dy="3.66667">mm2s_introut</text>
</g>
<g stroke="#41619f">
<path d="M437 29h266" />
<path d="M703,29 A6.83537,6.83537 1.61957 0,1 710,36" />
<path d="M710 36v102" />
<path d="M710,138 A6.83537,6.83537 1.61957 0,1 703,145" />
<path d="M703 145h-266" />
<path d="M437,145 A6.83537,6.83537 1.61957 0,1 430,138" />
<path d="M430 138v-102" />
<path d="M430,36 A6.83537,6.83537 1.61957 0,1 437,29" />
<path d="M787 109h206l3 1l2 1l1 2l1 3v82l-1 3l-1 2l-2 1l-3 1h-206l-3 -1l-2 -1l-1 -2l-1 -3v-82l1 -3l1 -2l2 -1z" stroke="none" fill="#edf6fe" />
<text x="890" y="107" fill="black" stroke-width="0" text-anchor="middle" dy="-1.6">data_smc</text>
<text x="890" y="207" fill="#41619f" stroke-width="0" text-anchor="middle" dy="9.6">AXI SmartConnect</text>
<path d="M770 128h10v18h-10z" stroke="none" fill="#edf6fe" />
</g>
<g stroke="black" stroke-width="3">
<path d="M789 132v10" />
<path d="M784 137h10" />
</g>
<g stroke="black">
<path d="M782 130h14v14h-14z" />
<text x="797" y="137" fill="black" stroke-width="0" font-size="10" dy="3.66667">S00_AXI</text>
<path d="M1000 148h10v18h-10z" stroke="none" fill="#edf6fe" />
</g>
<g stroke="black" stroke-width="3">
<path d="M990 152v10" />
<path d="M985 157h10" />
</g>
<g stroke="black">
<path d="M983 150h14v14h-14z" />
<text x="983" y="157" fill="black" stroke-width="0" font-size="10" text-anchor="end" dy="3.66667">M00_AXI</text>
</g>
<g stroke="black" stroke-width="3">
<path d="M770 157h10" />
<text x="782" y="157" fill="black" stroke-width="0" font-size="10" dy="3.66667">aclk</text>
<circle cx="777" cy="177" r="3" />
<path d="M770 177h4" />
<text x="782" y="177" fill="black" stroke-width="0" font-size="10" dy="3.66667">aresetn</text>
</g>
<g stroke="#41619f">
<path d="M787 109h206" />
<path d="M993,109 A6.83537,6.83537 1.61957 0,1 1000,116" />
<path d="M1000 116v82" />
<path d="M1000,198 A6.83537,6.83537 1.61957 0,1 993,205" />
<path d="M993 205h-206" />
<path d="M787,205 A6.83537,6.83537 1.61957 0,1 780,198" />
<path d="M780 198v-82" />
<path d="M780,116 A6.83537,6.83537 1.61957 0,1 787,109" />
<path d="M1067 105h526l3 1l2 1l1 2l1 3v110l-1 3l-1 2l-2 1l-3 1h-526l-3 -1l-2 -1l-1 -2l-1 -3v-110l1 -3l1 -2l2 -1z" stroke="none" fill="#edf6fe" />
<text x="1330" y="103" fill="black" stroke-width="0" text-anchor="middle" dy="-1.6">zynq_ultra_ps_e_0</text>
<text x="1330" y="231" fill="#41619f" stroke-width="0" text-anchor="middle" dy="9.6">Zynq UltraScale+ MPSoC</text>
<path d="M1600 138h10v18h-10z" stroke="none" fill="#edf6fe" />
</g>
<g stroke="black" stroke-width="3">
<path d="M1590 142v10" />
<path d="M1585 147h10" />
</g>
<g stroke="black">
<path d="M1583 140h14v14h-14z" />
<text x="1583" y="147" fill="black" stroke-width="0" font-size="10" text-anchor="end" dy="3.66667">M_AXI_HPM0_FPD</text>
<path d="M1050 138h10v18h-10z" stroke="none" fill="#edf6fe" />
</g>
<g stroke="black" stroke-width="3">
<path d="M1069 142v10" />
<path d="M1064 147h10" />
</g>
<g stroke="black">
<path d="M1062 140h14v14h-14z" />
<text x="1077" y="147" fill="black" stroke-width="0" font-size="10" dy="3.66667">S_AXI_HP0_FPD</text>
</g>
<g stroke="black" stroke-width="3">
<path d="M1050 167h10" />
<text x="1062" y="167" fill="black" stroke-width="0" font-size="10" dy="3.66667">maxihpm0_fpd_aclk</text>
<path d="M1050 187h10" />
<text x="1062" y="187" fill="black" stroke-width="0" font-size="10" dy="3.66667">saxihp0_fpd_aclk</text>
<circle cx="1603" cy="167" r="3" />
<path d="M1610 167h-4" />
<text x="1598" y="167" fill="black" stroke-width="0" font-size="10" text-anchor="end" dy="3.66667">pl_resetn0</text>
<path d="M1610 187h-10" />
<text x="1598" y="187" fill="black" stroke-width="0" font-size="10" text-anchor="end" dy="3.66667">pl_clk0</text>
</g>
<g stroke="#41619f">
<path d="M1067 105h526" />
<path d="M1593,105 A6.83537,6.83537 1.61957 0,1 1600,112" />
<path d="M1600 112v110" />
<path d="M1600,222 A6.83537,6.83537 1.61957 0,1 1593,229" />
<path d="M1593 229h-526" />
<path d="M1067,229 A6.83537,6.83537 1.61957 0,1 1060,222" />
<path d="M1060 222v-110" />
<path d="M1060,112 A6.83537,6.83537 1.61957 0,1 1067,105" />
<path d="M1687 119h206l3 1l2 1l1 2l1 3v82l-1 3l-1 2l-2 1l-3 1h-206l-3 -1l-2 -1l-1 -2l-1 -3v-82l1 -3l1 -2l2 -1z" stroke="none" fill="#edf6fe" />
<text x="1790" y="117" fill="black" stroke-width="0" text-anchor="middle" dy="-1.6">ctrl_smc</text>
<text x="1790" y="217" fill="#41619f" stroke-width="0" text-anchor="middle" dy="9.6">AXI SmartConnect</text>
<path d="M1670 138h10v18h-10z" stroke="none" fill="#edf6fe" />
</g>
<g stroke="black" stroke-width="3">
<path d="M1689 142v10" />
<path d="M1684 147h10" />
</g>
<g stroke="black">
<path d="M1682 140h14v14h-14z" />
<text x="1697" y="147" fill="black" stroke-width="0" font-size="10" dy="3.66667">S00_AXI</text>
<path d="M1900 148h10v18h-10z" stroke="none" fill="#edf6fe" />
</g>
<g stroke="black" stroke-width="3">
<path d="M1890 152v10" />
<path d="M1885 157h10" />
</g>
<g stroke="black">
<path d="M1883 150h14v14h-14z" />
<text x="1883" y="157" fill="black" stroke-width="0" font-size="10" text-anchor="end" dy="3.66667">M00_AXI</text>
<path d="M1900 168h10v18h-10z" stroke="none" fill="#edf6fe" />
</g>
<g stroke="black" stroke-width="3">
<path d="M1890 172v10" />
<path d="M1885 177h10" />
</g>
<g stroke="black">
<path d="M1883 170h14v14h-14z" />
<text x="1883" y="177" fill="black" stroke-width="0" font-size="10" text-anchor="end" dy="3.66667">M01_AXI</text>
</g>
<g stroke="black" stroke-width="3">
<path d="M1670 167h10" />
<text x="1682" y="167" fill="black" stroke-width="0" font-size="10" dy="3.66667">aclk</text>
<circle cx="1677" cy="187" r="3" />
<path d="M1670 187h4" />
<text x="1682" y="187" fill="black" stroke-width="0" font-size="10" dy="3.66667">aresetn</text>
</g>
<g stroke="#41619f">
<path d="M1687 119h206" />
<path d="M1893,119 A6.83537,6.83537 1.61957 0,1 1900,126" />
<path d="M1900 126v82" />
<path d="M1900,208 A6.83537,6.83537 1.61957 0,1 1893,215" />
<path d="M1893 215h-206" />
<path d="M1687,215 A6.83537,6.83537 1.61957 0,1 1680,208" />
<path d="M1680 208v-82" />
<path d="M1680,126 A6.83537,6.83537 1.61957 0,1 1687,119" />
<path d="M1987 149h206l3 1l2 1l1 2l1 3v102l-1 3l-1 2l-2 1l-3 1h-206l-3 -1l-2 -1l-1 -2l-1 -3v-102l1 -3l1 -2l2 -1z" stroke="none" fill="#edf6fe" />
<text x="2090" y="147" fill="black" stroke-width="0" text-anchor="middle" dy="-1.6">ddmap_sqm_hls_0</text>
<text x="2090" y="267" fill="#41619f" stroke-width="0" text-anchor="middle" dy="9.6">ddmap_sqm_ownfft (Pre-Production)</text>
<path d="M1970 168h10v18h-10z" stroke="none" fill="#edf6fe" />
</g>
<g stroke="black" stroke-width="3">
<path d="M1989 172v10" />
<path d="M1984 177h10" />
</g>
<g stroke="black">
<path d="M1982 170h14v14h-14z" />
<text x="1997" y="177" fill="black" stroke-width="0" font-size="10" dy="3.66667">s_axi_ctrl</text>
<path d="M1970 188h10v18h-10z" stroke="none" fill="#edf6fe" />
</g>
<g stroke="black" stroke-width="3">
<path d="M1989 192v10" />
<path d="M1984 197h10" />
</g>
<g stroke="black">
<path d="M1982 190h14v14h-14z" />
<text x="1997" y="197" fill="black" stroke-width="0" font-size="10" dy="3.66667">iq_in</text>
</g>
<g stroke="black" stroke-width="3">
<path d="M1970 217h10" />
<text x="1982" y="217" fill="black" stroke-width="0" font-size="10" dy="3.66667">ap_clk</text>
<circle cx="1977" cy="237" r="3" />
<path d="M1970 237h4" />
<text x="1982" y="237" fill="black" stroke-width="0" font-size="10" dy="3.66667">ap_rst_n</text>
<path d="M2210 207h-10" />
<text x="2198" y="207" fill="black" stroke-width="0" font-size="10" text-anchor="end" dy="3.66667">interrupt</text>
</g>
<g stroke="#41619f">
<path d="M1987 149h206" />
<path d="M2193,149 A6.83537,6.83537 1.61957 0,1 2200,156" />
<path d="M2200 156v102" />
<path d="M2200,258 A6.83537,6.83537 1.61957 0,1 2193,265" />
<path d="M2193 265h-206" />
<path d="M1987,265 A6.83537,6.83537 1.61957 0,1 1980,258" />
<path d="M1980 258v-102" />
<path d="M1980,156 A6.83537,6.83537 1.61957 0,1 1987,149" />
<path d="M2250 207v-7h14l7 7l-7 7h-14z" stroke="none" fill="#ddd4d0" />
</g>
<g>
<path d="M2250 207v-7h14l7 7l-7 7h-14z" />
<text x="2275" y="207" fill="black" stroke-width="0" dy="4.4">RESULTS_READY_IRQ</text>
</g>
<g stroke="#41619f" stroke-width="4">
<path d="M720 77h1230v120h20" />
<path d="M720 57h20v80h30" />
<path d="M420 57h-20v230h1530v-130h-20" />
<path d="M1910 177h60" />
<path d="M1010 157h20v-10h20" />
</g>
<g>
<path d="M2210 207h40" />
</g>
<g stroke-width="3">
<path d="M360 417h390v-240h20" />
<path d="M750 277h900v-90h20" />
<path d="M747 274h7v7h-7z" stroke="none" fill="#102235" />
<path d="M360 437h30v-320h30" />
<path d="M390 427h1560v-190h20" />
<path d="M387 424h7v7h-7z" stroke="none" fill="#102235" />
</g>
<g stroke="#41619f" stroke-width="4">
<path d="M1610 147h60" />
</g>
<g>
<path d="M40 357h-30v-120h370" />
<path d="M378 95h5v5h-5z" stroke="none" fill="#102235" />
<path d="M378 235h5v5h-5z" stroke="none" fill="#102235" />
<path d="M770 157h-30v80h290" />
<path d="M1028 185h5v5h-5z" stroke="none" fill="#102235" />
<path d="M1028 235h5v5h-5z" stroke="none" fill="#102235" />
<path d="M1670 167h-30v130h300v-80h30" />
<path d="M420 77h-40v160h360" />
<path d="M738 235h5v5h-5z" stroke="none" fill="#102235" />
<path d="M1050 167h-20v100h610" />
<path d="M1638 185h5v5h-5z" stroke="none" fill="#102235" />
<path d="M1638 265h5v5h-5z" stroke="none" fill="#102235" />
<path d="M380 97h40" />
<path d="M1030 187h20" />
<path d="M1610 187h30" />
<path d="M40 377h-20v-80h1610v-130h-20" />
</g>
</g>
</svg>
